<svg width="56" height="40" viewBox="0 0 56 40" fill="none" xmlns="http://www.w3.org/2000/svg">
<path fill-rule="evenodd" clip-rule="evenodd" d="M0 0H56V40H0V0Z" fill="url(#paint0_linear_589_47)"/>
<path fill-rule="evenodd" clip-rule="evenodd" d="M0 0H56V13.3333H0V0Z" fill="url(#paint1_linear_589_47)"/>
<path fill-rule="evenodd" clip-rule="evenodd" d="M0 26.6665H56V39.9998H0V26.6665Z" fill="url(#paint2_linear_589_47)"/>
<path fill-rule="evenodd" clip-rule="evenodd" d="M0 13.3335H56V26.6668H0V13.3335Z" fill="url(#paint3_linear_589_47)"/>
<path d="M28.0001 25.3332C25.0546 25.3332 22.6667 22.9454 22.6667 19.9998C22.6667 17.0543 25.0546 14.6665 28.0001 14.6665C30.9456 14.6665 33.3334 17.0543 33.3334 19.9998C33.3334 22.9454 30.9456 25.3332 28.0001 25.3332Z" fill="#DB7A2C"/>
<path d="M28 24C30.2091 24 32 22.2091 32 20C32 17.7909 30.2091 16 28 16C25.7909 16 24 17.7909 24 20C24 22.2091 25.7909 24 28 24Z" fill="#F4B32E"/>
<defs>
<linearGradient id="paint0_linear_589_47" x1="588" y1="0" x2="588" y2="600" gradientUnits="userSpaceOnUse">
<stop stop-color="white"/>
<stop offset="1" stop-color="#F0F0F0"/>
</linearGradient>
<linearGradient id="paint1_linear_589_47" x1="588" y1="0" x2="588" y2="200" gradientUnits="userSpaceOnUse">
<stop stop-color="#88BBE8"/>
<stop offset="1" stop-color="#76ADDD"/>
</linearGradient>
<linearGradient id="paint2_linear_589_47" x1="588" y1="26.6665" x2="588" y2="226.666" gradientUnits="userSpaceOnUse">
<stop stop-color="#88BBE8"/>
<stop offset="1" stop-color="#76ADDD"/>
</linearGradient>
<linearGradient id="paint3_linear_589_47" x1="588" y1="13.3335" x2="588" y2="213.333" gradientUnits="userSpaceOnUse">
<stop stop-color="white"/>
<stop offset="1" stop-color="#F0F0F0"/>
</linearGradient>
</defs>
</svg>
