<svg width="100" height="98" viewBox="0 0 100 98" fill="none" xmlns="http://www.w3.org/2000/svg">
<ellipse cx="50" cy="49" rx="50" ry="49" fill="#4C3D5C"/>
<mask id="mask0_697_12" style="mask-type:alpha" maskUnits="userSpaceOnUse" x="25" y="24" width="50" height="50">
<rect x="25" y="24" width="50" height="50" fill="#D9D9D9"/>
</mask>
<g mask="url(#mask0_697_12)">
<path d="M39.5835 67.75C38.4377 67.75 37.4568 67.342 36.6408 66.526C35.8248 65.7101 35.4168 64.7292 35.4168 63.5833V36.5H33.3335V32.3333H43.7502V30.25H56.2502V32.3333H66.6668V36.5H64.5835V63.5833C64.5835 64.7292 64.1755 65.7101 63.3595 66.526C62.5436 67.342 61.5627 67.75 60.4168 67.75H39.5835ZM60.4168 36.5H39.5835V63.5833H60.4168V36.5ZM43.7502 59.4167H47.9168V40.6667H43.7502V59.4167ZM52.0835 59.4167H56.2502V40.6667H52.0835V59.4167Z" fill="#3B205B"/>
</g>
</svg>
