<svg width="100" height="98" viewBox="0 0 100 98" fill="none" xmlns="http://www.w3.org/2000/svg">
<ellipse cx="50" cy="49" rx="50" ry="49" fill="#4C3D5C"/>
<mask id="mask0_697_12" style="mask-type:alpha" maskUnits="userSpaceOnUse" x="25" y="24" width="50" height="50">
<rect x="25" y="24" width="50" height="50" fill="#D9D9D9"/>
</mask>
<g mask="url(#mask0_697_12)">
<path d="M37.4997 69.833C36.3538 69.833 35.3729 69.425 34.557 68.609C33.741 67.7931 33.333 66.8122 33.333 65.6663V44.833C33.333 43.6872 33.741 42.7063 34.557 41.8903C35.3729 41.0743 36.3538 40.6663 37.4997 40.6663H39.583V36.4997C39.583 33.6177 40.5986 31.1611 42.6299 29.1299C44.6611 27.0986 47.1177 26.083 49.9997 26.083C52.8816 26.083 55.3382 27.0986 57.3695 29.1299C59.4007 31.1611 60.4163 33.6177 60.4163 36.4997V40.6663H62.4997C63.6455 40.6663 64.6264 41.0743 65.4424 41.8903C66.2584 42.7063 66.6663 43.6872 66.6663 44.833V65.6663C66.6663 66.8122 66.2584 67.7931 65.4424 68.609C64.6264 69.425 63.6455 69.833 62.4997 69.833H37.4997ZM37.4997 65.6663H62.4997V44.833H37.4997V65.6663ZM49.9997 59.4163C51.1455 59.4163 52.1264 59.0084 52.9424 58.1924C53.7584 57.3764 54.1663 56.3955 54.1663 55.2497C54.1663 54.1038 53.7584 53.1229 52.9424 52.307C52.1264 51.491 51.1455 51.083 49.9997 51.083C48.8538 51.083 47.8729 51.491 47.057 52.307C46.241 53.1229 45.833 54.1038 45.833 55.2497C45.833 56.3955 46.241 57.3764 47.057 58.1924C47.8729 59.0084 48.8538 59.4163 49.9997 59.4163ZM43.7497 40.6663H56.2497V36.4997C56.2497 34.7636 55.642 33.2879 54.4268 32.0726C53.2115 30.8573 51.7358 30.2497 49.9997 30.2497C48.2636 30.2497 46.7879 30.8573 45.5726 32.0726C44.3573 33.2879 43.7497 34.7636 43.7497 36.4997V40.6663Z" fill="#3B205B"/>
<rect x="43.75" y="49" width="14.5833" height="10.4167" fill="#4C3D5C"/>
<path d="M48.9583 60.9788L43.75 55.7705L45.5729 53.9476L48.9583 57.333L55.7292 51.083L56.7708 52.1247L57.8125 53.1663L48.9583 60.9788Z" fill="#3B205B"/>
</g>
</svg>
