<svg width="100" height="98" viewBox="0 0 100 98" fill="none" xmlns="http://www.w3.org/2000/svg">
<ellipse cx="50" cy="49" rx="50" ry="49" fill="#4C3D5C"/>
<mask id="mask0_652_11" style="mask-type:alpha" maskUnits="userSpaceOnUse" x="25" y="24" width="50" height="50">
<rect x="25" y="24" width="50" height="50" fill="#D9D9D9"/>
</mask>
<g mask="url(#mask0_652_11)">
<path d="M37.5002 40.6668H56.2502V36.5002C56.2502 34.7641 55.6425 33.2884 54.4272 32.0731C53.212 30.8578 51.7363 30.2502 50.0002 30.2502C48.2641 30.2502 46.7884 30.8578 45.5731 32.0731C44.3578 33.2884 43.7502 34.7641 43.7502 36.5002H39.5835C39.5835 33.6182 40.5991 31.1616 42.6304 29.1304C44.6616 27.0991 47.1182 26.0835 50.0002 26.0835C52.8821 26.0835 55.3387 27.0991 57.37 29.1304C59.4012 31.1616 60.4168 33.6182 60.4168 36.5002V40.6668H62.5002C63.646 40.6668 64.6269 41.0748 65.4429 41.8908C66.2588 42.7068 66.6668 43.6877 66.6668 44.8335V65.6668C66.6668 66.8127 66.2588 67.7936 65.4429 68.6095C64.6269 69.4255 63.646 69.8335 62.5002 69.8335H37.5002C36.3543 69.8335 35.3734 69.4255 34.5575 68.6095C33.7415 67.7936 33.3335 66.8127 33.3335 65.6668V44.8335C33.3335 43.6877 33.7415 42.7068 34.5575 41.8908C35.3734 41.0748 36.3543 40.6668 37.5002 40.6668ZM37.5002 65.6668H62.5002V44.8335H37.5002V65.6668ZM50.0002 59.4168C51.146 59.4168 52.1269 59.0088 52.9429 58.1929C53.7588 57.3769 54.1668 56.396 54.1668 55.2502C54.1668 54.1043 53.7588 53.1234 52.9429 52.3075C52.1269 51.4915 51.146 51.0835 50.0002 51.0835C48.8543 51.0835 47.8734 51.4915 47.0575 52.3075C46.2415 53.1234 45.8335 54.1043 45.8335 55.2502C45.8335 56.396 46.2415 57.3769 47.0575 58.1929C47.8734 59.0088 48.8543 59.4168 50.0002 59.4168Z" fill="#3B205B"/>
</g>
</svg>
