<svg width="56" height="40" viewBox="0 0 56 40" fill="none" xmlns="http://www.w3.org/2000/svg">
<path fill-rule="evenodd" clip-rule="evenodd" d="M0 0H56V40H0V0Z" fill="url(#paint0_linear_589_55)"/>
<path fill-rule="evenodd" clip-rule="evenodd" d="M0 0H56V40H0V0Z" fill="url(#paint1_linear_589_55)"/>
<path fill-rule="evenodd" clip-rule="evenodd" d="M26.6667 0H56V5.33333H26.6667V0ZM26.6667 10.6667H56V16H26.6667V10.6667ZM26.6667 21.3333H56V26.6667H26.6667V21.3333ZM0 32H56V37.3333H0V32ZM0 0H26.6667V26.6667H0V0Z" fill="url(#paint2_linear_589_55)"/>
<path fill-rule="evenodd" clip-rule="evenodd" d="M13.3333 18.6422L11.5531 21.2995L11.1022 18.133L8.34533 19.7548L9.31298 16.7062L6.1255 16.9712L8.32005 14.6443L5.33325 13.5001L8.32005 12.3559L6.1255 10.029L9.31298 10.294L8.34533 7.24545L11.1022 8.86721L11.5531 5.70068L13.3333 8.35798L15.1134 5.70068L15.5643 8.86721L18.3212 7.24545L17.3535 10.294L20.541 10.029L18.3465 12.3559L21.3333 13.5001L18.3465 14.6443L20.541 16.9712L17.3535 16.7062L18.3212 19.7548L15.5643 18.133L15.1134 21.2995L13.3333 18.6422ZM13.3333 18.591C16.1449 18.591 18.4242 16.3117 18.4242 13.5001C18.4242 10.6885 16.1449 8.4092 13.3333 8.4092C10.5216 8.4092 8.24234 10.6885 8.24234 13.5001C8.24234 16.3117 10.5216 18.591 13.3333 18.591ZM13.3333 17.333C11.1241 17.333 9.33325 15.5421 9.33325 13.333C9.33325 11.1238 11.1241 9.33296 13.3333 9.33296C15.5424 9.33296 17.3333 11.1238 17.3333 13.333C17.3333 15.5421 15.5424 17.333 13.3333 17.333Z" fill="url(#paint3_linear_589_55)"/>
<path d="M11 13.3335C11 13.1494 11.1492 13.0002 11.3333 13.0002C11.5174 13.0002 11.6667 13.1494 11.6667 13.3335C11.6667 13.6167 11.7371 13.889 11.8698 14.1316C12.1602 14.6629 12.7169 15.0002 13.3333 15.0002C13.9816 15.0002 14.5623 14.6269 14.8375 14.0524C14.8888 13.9517 14.8888 13.9517 14.9396 13.8648C14.958 13.8339 14.958 13.8339 14.9756 13.8043C15.1027 13.5907 15.1421 13.4887 15.1421 13.3335C15.1421 13.1494 15.2913 13.0002 15.4754 13.0002C15.6595 13.0002 15.8088 13.1494 15.8088 13.3335C15.8088 13.638 15.7319 13.837 15.5485 14.1453C15.5305 14.1754 15.5305 14.1754 15.5136 14.2039C15.471 14.277 15.471 14.277 15.4387 14.3404C15.0537 15.1442 14.2406 15.6668 13.3333 15.6668C12.4708 15.6668 11.6911 15.1945 11.2848 14.4514C11.0989 14.1113 11 13.7292 11 13.3335ZM14.6667 12.6668C14.2985 12.6668 14 12.3684 14 12.0002C14 11.632 14.2985 11.3335 14.6667 11.3335C15.0349 11.3335 15.3333 11.632 15.3333 12.0002C15.3333 12.3684 15.0349 12.6668 14.6667 12.6668ZM12 12.6668C11.6318 12.6668 11.3333 12.3684 11.3333 12.0002C11.3333 11.632 11.6318 11.3335 12 11.3335C12.3682 11.3335 12.6667 11.632 12.6667 12.0002C12.6667 12.3684 12.3682 12.6668 12 12.6668Z" fill="#C6A326"/>
<defs>
<linearGradient id="paint0_linear_589_55" x1="588" y1="0" x2="588" y2="600" gradientUnits="userSpaceOnUse">
<stop stop-color="white"/>
<stop offset="1" stop-color="#F0F0F0"/>
</linearGradient>
<linearGradient id="paint1_linear_589_55" x1="588" y1="0" x2="588" y2="600" gradientUnits="userSpaceOnUse">
<stop stop-color="#0E4DC5"/>
<stop offset="1" stop-color="#073DA6"/>
</linearGradient>
<linearGradient id="paint2_linear_589_55" x1="588" y1="0" x2="588" y2="560" gradientUnits="userSpaceOnUse">
<stop stop-color="white"/>
<stop offset="1" stop-color="#F0F0F0"/>
</linearGradient>
<linearGradient id="paint3_linear_589_55" x1="173.333" y1="5.70068" x2="173.333" y2="239.683" gradientUnits="userSpaceOnUse">
<stop stop-color="#FED443"/>
<stop offset="1" stop-color="#FCD036"/>
</linearGradient>
</defs>
</svg>
