<svg width="35" height="35" viewBox="0 0 35 35" fill="none" xmlns="http://www.w3.org/2000/svg">
<mask id="mask0_246_104" style="mask-type:alpha" maskUnits="userSpaceOnUse" x="0" y="0" width="35" height="35">
<rect width="35" height="35" fill="#D9D9D9"/>
</mask>
<g mask="url(#mask0_246_104)">
<path d="M10.2083 32.0832C9.40617 32.0832 8.71954 31.7976 8.14836 31.2264C7.57718 30.6552 7.29159 29.9686 7.29159 29.1665C7.29159 28.3644 7.57718 27.6778 8.14836 27.1066C8.71954 26.5354 9.40617 26.2498 10.2083 26.2498C11.0103 26.2498 11.697 26.5354 12.2681 27.1066C12.8393 27.6778 13.1249 28.3644 13.1249 29.1665C13.1249 29.9686 12.8393 30.6552 12.2681 31.2264C11.697 31.7976 11.0103 32.0832 10.2083 32.0832ZM24.7916 32.0832C23.9895 32.0832 23.3029 31.7976 22.7317 31.2264C22.1605 30.6552 21.8749 29.9686 21.8749 29.1665C21.8749 28.3644 22.1605 27.6778 22.7317 27.1066C23.3029 26.5354 23.9895 26.2498 24.7916 26.2498C25.5937 26.2498 26.2803 26.5354 26.8515 27.1066C27.4227 27.6778 27.7083 28.3644 27.7083 29.1665C27.7083 29.9686 27.4227 30.6552 26.8515 31.2264C26.2803 31.7976 25.5937 32.0832 24.7916 32.0832ZM7.58325 5.83317H29.0937C29.6527 5.83317 30.078 6.0823 30.3697 6.58057C30.6614 7.07883 30.6735 7.58317 30.4062 8.09359L25.2291 17.4269C24.9617 17.913 24.6032 18.2898 24.1536 18.5571C23.7039 18.8245 23.2117 18.9582 22.677 18.9582H11.8124L10.2083 21.8748H27.7083V24.7915H10.2083C9.1145 24.7915 8.28811 24.3115 7.72909 23.3514C7.17006 22.3913 7.14575 21.4373 7.65617 20.4894L9.62492 16.9165L4.37492 5.83317H1.45825V2.9165H6.19784L7.58325 5.83317Z" fill="#D9D9D9"/>
</g>
</svg>
