<svg width="35" height="35" viewBox="0 0 35 35" fill="none" xmlns="http://www.w3.org/2000/svg">
<mask id="mask0_246_92" style="mask-type:alpha" maskUnits="userSpaceOnUse" x="0" y="0" width="35" height="35">
<rect width="35" height="35" fill="#D9D9D9"/>
</mask>
<g mask="url(#mask0_246_92)">
<path d="M7.29167 32.083C6.48958 32.083 5.80295 31.7974 5.23177 31.2262C4.66059 30.6551 4.375 29.9684 4.375 29.1663V11.6663C4.375 10.8643 4.66059 10.1776 5.23177 9.60645C5.80295 9.03526 6.48958 8.74967 7.29167 8.74967H10.2083C10.2083 6.73231 10.9193 5.0127 12.3411 3.59082C13.763 2.16895 15.4826 1.45801 17.5 1.45801C19.5174 1.45801 21.237 2.16895 22.6589 3.59082C24.0807 5.0127 24.7917 6.73231 24.7917 8.74967H27.7083C28.5104 8.74967 29.1971 9.03526 29.7682 9.60645C30.3394 10.1776 30.625 10.8643 30.625 11.6663V29.1663C30.625 29.9684 30.3394 30.6551 29.7682 31.2262C29.1971 31.7974 28.5104 32.083 27.7083 32.083H7.29167ZM17.5 20.4163C19.5174 20.4163 21.237 19.7054 22.6589 18.2835C24.0807 16.8617 24.7917 15.142 24.7917 13.1247H21.875C21.875 14.34 21.4497 15.3729 20.599 16.2236C19.7483 17.0743 18.7153 17.4997 17.5 17.4997C16.2847 17.4997 15.2517 17.0743 14.401 16.2236C13.5503 15.3729 13.125 14.34 13.125 13.1247H10.2083C10.2083 15.142 10.9193 16.8617 12.3411 18.2835C13.763 19.7054 15.4826 20.4163 17.5 20.4163ZM13.125 8.74967H21.875C21.875 7.5344 21.4497 6.50141 20.599 5.65072C19.7483 4.80002 18.7153 4.37467 17.5 4.37467C16.2847 4.37467 15.2517 4.80002 14.401 5.65072C13.5503 6.50141 13.125 7.5344 13.125 8.74967Z" fill="#D9D9D9"/>
</g>
</svg>
