<svg width="35" height="35" viewBox="0 0 35 35" fill="none" xmlns="http://www.w3.org/2000/svg">
<mask id="mask0_246_98" style="mask-type:alpha" maskUnits="userSpaceOnUse" x="0" y="0" width="35" height="35">
<rect width="35" height="35" fill="#D9D9D9"/>
</mask>
<g mask="url(#mask0_246_98)">
<path d="M10.9377 32.0832C9.52794 32.0832 8.32482 31.5849 7.32829 30.5884C6.33176 29.5919 5.8335 28.3887 5.8335 26.979V8.02067C5.8335 6.61095 6.33176 5.40782 7.32829 4.4113C8.32482 3.41477 9.52794 2.9165 10.9377 2.9165H29.1668V24.7915C28.5592 24.7915 28.0427 25.0042 27.6174 25.4295C27.192 25.8549 26.9793 26.3714 26.9793 26.979C26.9793 27.5866 27.192 28.1031 27.6174 28.5285C28.0427 28.9538 28.5592 29.1665 29.1668 29.1665V32.0832H10.9377ZM11.6668 21.8748H14.5835V5.83317H11.6668V21.8748ZM10.9377 29.1665H24.5366C24.3908 28.8262 24.2753 28.4799 24.1903 28.1274C24.1052 27.775 24.0627 27.3922 24.0627 26.979C24.0627 26.5901 24.0991 26.2134 24.172 25.8488C24.245 25.4842 24.3665 25.1318 24.5366 24.7915H10.9377C10.3057 24.7915 9.78315 25.0042 9.36995 25.4295C8.95676 25.8549 8.75016 26.3714 8.75016 26.979C8.75016 27.6109 8.95676 28.1335 9.36995 28.5467C9.78315 28.9599 10.3057 29.1665 10.9377 29.1665Z" fill="#D9D9D9"/>
</g>
</svg>
