<?xml version="1.0"?>
<svg width="124" height="20" xmlns="http://www.w3.org/2000/svg" xmlns:svg="http://www.w3.org/2000/svg">
 <g class="layer">
  <title>Layer 1</title>
  <path d="m10,0l2.25,6.91l7.26,0l-5.88,4.27l2.25,6.91l-5.88,-4.27l-5.88,4.27l2.25,-6.91l-5.88,-4.27l7.26,0l2.25,-6.91z" fill="#8F65BD" id="svg_1"/>
  <path d="m36,0l2.25,6.91l7.26,0l-5.88,4.27l2.25,6.91l-5.88,-4.27l-5.88,4.27l2.25,-6.91l-5.88,-4.27l7.26,0l2.25,-6.91z" fill="#8F65BD" id="svg_2"/>
  <path d="m62,0l2.25,6.91l7.26,0l-5.88,4.27l2.25,6.91l-5.88,-4.27l-5.88,4.27l2.25,-6.91l-5.88,-4.27l7.26,0l2.25,-6.91z" fill="#8F65BD" id="svg_3"/>
  <path d="m88,0l2.25,6.91l7.26,0l-5.88,4.27l2.25,6.91l-5.88,-4.27l-5.88,4.27l2.25,-6.91l-5.88,-4.27l7.26,0l2.25,-6.91z" fill="#8F65BD" id="svg_4"/>
  <path d="m114,0l2.25,6.91l7.26,0l-5.88,4.27l2.25,6.91l-5.88,-4.27l-5.88,4.27l2.25,-6.91l-5.88,-4.27l7.26,0l2.25,-6.91z" fill="#D9D9D9" id="svg_5"/>
  <path d="m114,0l0,7.5l0,1.5l0,2.18l0,1.82l0,0.82l-5.88,4.27l2.25,-6.91l-5.88,-4.27l7.26,0l2.25,-6.91z" fill="#8F65BD" id="svg_6"/>
 </g>
</svg>