<svg width="56" height="40" viewBox="0 0 56 40" fill="none" xmlns="http://www.w3.org/2000/svg">
<path fill-rule="evenodd" clip-rule="evenodd" d="M0 0H56V40H0V0Z" fill="url(#paint0_linear_589_38)"/>
<path fill-rule="evenodd" clip-rule="evenodd" d="M0 0H56V13.3333H0V0Z" fill="url(#paint1_linear_589_38)"/>
<path fill-rule="evenodd" clip-rule="evenodd" d="M0 26.6665H56V39.9998H0V26.6665Z" fill="url(#paint2_linear_589_38)"/>
<path fill-rule="evenodd" clip-rule="evenodd" d="M0 13.3335H56V26.6668H0V13.3335Z" fill="url(#paint3_linear_589_38)"/>
<path d="M28.0001 23.9998C30.2092 23.9998 32.0001 22.209 32.0001 19.9998C32.0001 17.7907 30.2092 15.9998 28.0001 15.9998C25.7909 15.9998 24.0001 17.7907 24.0001 19.9998C24.0001 22.209 25.7909 23.9998 28.0001 23.9998ZM28.0001 25.3332C25.0546 25.3332 22.6667 22.9454 22.6667 19.9998C22.6667 17.0543 25.0546 14.6665 28.0001 14.6665C30.9456 14.6665 33.3334 17.0543 33.3334 19.9998C33.3334 22.9454 30.9456 25.3332 28.0001 25.3332Z" fill="#398153"/>
<path d="M27.9999 22.6668C29.4727 22.6668 30.6666 21.4729 30.6666 20.0002C30.6666 18.5274 29.4727 17.3335 27.9999 17.3335C26.5272 17.3335 25.3333 18.5274 25.3333 20.0002C25.3333 21.4729 26.5272 22.6668 27.9999 22.6668Z" fill="#E5CF58"/>
<defs>
<linearGradient id="paint0_linear_589_38" x1="588" y1="0" x2="588" y2="600" gradientUnits="userSpaceOnUse">
<stop stop-color="white"/>
<stop offset="1" stop-color="#F0F0F0"/>
</linearGradient>
<linearGradient id="paint1_linear_589_38" x1="588" y1="0" x2="588" y2="200" gradientUnits="userSpaceOnUse">
<stop stop-color="#E33F39"/>
<stop offset="1" stop-color="#D32E28"/>
</linearGradient>
<linearGradient id="paint2_linear_589_38" x1="588" y1="26.6665" x2="588" y2="226.666" gradientUnits="userSpaceOnUse">
<stop stop-color="#124BBA"/>
<stop offset="1" stop-color="#073DA6"/>
</linearGradient>
<linearGradient id="paint3_linear_589_38" x1="588" y1="13.3335" x2="588" y2="213.333" gradientUnits="userSpaceOnUse">
<stop stop-color="white"/>
<stop offset="1" stop-color="#F0F0F0"/>
</linearGradient>
</defs>
</svg>
